<?xml version="1.0" encoding="UTF-8"?>
<svg width="36px" height="36px" viewBox="0 0 36 36" version="1.1" xmlns="http://www.w3.org/2000/svg" xmlns:xlink="http://www.w3.org/1999/xlink">
    <g id="avatar_default" stroke="none" stroke-width="1" fill="none" fill-rule="evenodd">
        <g id="Me备份">
            <rect id="Rectangle-4" fill="#EDEDED" x="0" y="0" width="36" height="36" rx="4.5"></rect>
            <path d="M9.21934149,28.125 C8.47688219,28.125 7.875,27.5253773 7.875,26.7678878 L7.875,26.2298962 C7.875,25.4591711 8.40592399,24.5608964 9.0623935,24.2227493 L15.0951383,21.1152859 C15.970073,20.6646075 16.1735129,19.6664203 15.5416982,18.8759688 L15.1563806,18.3939052 C14.3723912,17.4130708 13.7368421,15.5806835 13.7368421,14.2979518 L13.7368421,12.3745279 C13.7368421,9.88950727 15.6503138,7.875 18,7.875 C20.3544771,7.875 22.2631579,9.89210275 22.2631579,12.3752334 L22.2631579,14.2989589 C22.2631579,15.5804579 21.6246779,17.4182179 20.8436192,18.3955197 L20.4583016,18.8776493 C19.8299951,19.6638195 20.0262658,20.6644473 20.9048614,21.1168242 L26.9376065,24.2230023 C27.5933858,24.5606541 28.125,25.4533164 28.125,26.2298962 L28.125,26.7678878 C28.125,27.5174002 27.5189577,28.125 26.7806585,28.125 L9.21934149,28.125 Z" id="Combined-Shape" fill="#FFFFFF"></path>
        </g>
    </g>
</svg>